<svg id="export-svg" width="100%" xmlns="http://www.w3.org/2000/svg" style="max-width: 1764px;" viewBox="-50 -10 1764 1831" role="graphics-document document" aria-roledescription="sequence"><style xmlns="http://www.w3.org/1999/xhtml">p {margin: 0;}</style><g><rect x="1514" y="1715" fill="#eaeaea" stroke="#666" width="150" height="65" name="Pipeline" rx="6" ry="6" class="actor actor-bottom" data-look="neo" filter="url(#drop-shadow)"/><text x="1589" y="1747.5" style="text-anchor: middle; font-size: 16px; font-weight: 400;" dominant-baseline="central" alignment-baseline="central" class="actor actor-box"><tspan x="1589" dy="0">Pipeline</tspan></text></g><g><rect x="1314" y="1715" fill="#eaeaea" stroke="#666" width="150" height="65" name="BioTools" rx="6" ry="6" class="actor actor-bottom" data-look="neo" filter="url(#drop-shadow)"/><text x="1389" y="1747.5" style="text-anchor: middle; font-size: 16px; font-weight: 400;" dominant-baseline="central" alignment-baseline="central" class="actor actor-box"><tspan x="1389" dy="0">bio.tools</tspan></text></g><g><rect x="1114" y="1715" fill="#eaeaea" stroke="#666" width="150" height="65" name="GitHub" rx="6" ry="6" class="actor actor-bottom" data-look="neo" filter="url(#drop-shadow)"/><text x="1189" y="1747.5" style="text-anchor: middle; font-size: 16px; font-weight: 400;" dominant-baseline="central" alignment-baseline="central" class="actor actor-box"><tspan x="1189" dy="0">GitHub</tspan></text></g><g><rect x="804" y="1715" fill="#eaeaea" stroke="#666" width="150" height="65" name="Bridge" rx="6" ry="6" class="actor actor-bottom" data-look="neo" filter="url(#drop-shadow)"/><text x="879" y="1747.5" style="text-anchor: middle; font-size: 16px; font-weight: 400;" dominant-baseline="central" alignment-baseline="central" class="actor actor-box"><tspan x="879" dy="0">Bridge</tspan></text></g><g/><g><line id="actor2430" x1="1589" y1="65" x2="1589" y2="1715" class="actor-line 200" stroke-width="0.5px" stroke="#999" name="Pipeline" data-et="life-line" data-id="Pipeline"/><g id="root-2430" data-look="neo" data-et="participant" data-type="participant" data-id="Pipeline"><rect x="1514" y="0" fill="#eaeaea" stroke="#666" width="150" height="65" name="Pipeline" rx="6" ry="6" class="actor actor-top" data-look="neo" filter="url(#drop-shadow)"/><text x="1589" y="32.5" style="text-anchor: middle; font-size: 16px; font-weight: 400;" dominant-baseline="central" alignment-baseline="central" class="actor actor-box"><tspan x="1589" dy="0">Pipeline</tspan></text></g></g><g><line id="actor2429" x1="1389" y1="65" x2="1389" y2="1715" class="actor-line 200" stroke-width="0.5px" stroke="#999" name="BioTools" data-et="life-line" data-id="BioTools"/><g id="root-2429" data-look="neo" data-et="participant" data-type="participant" data-id="BioTools"><rect x="1314" y="0" fill="#eaeaea" stroke="#666" width="150" height="65" name="BioTools" rx="6" ry="6" class="actor actor-top" data-look="neo" filter="url(#drop-shadow)"/><text x="1389" y="32.5" style="text-anchor: middle; font-size: 16px; font-weight: 400;" dominant-baseline="central" alignment-baseline="central" class="actor actor-box"><tspan x="1389" dy="0">bio.tools</tspan></text></g></g><g><line id="actor2428" x1="1189" y1="65" x2="1189" y2="1715" class="actor-line 200" stroke-width="0.5px" stroke="#999" name="GitHub" data-et="life-line" data-id="GitHub"/><g id="root-2428" data-look="neo" data-et="participant" data-type="participant" data-id="GitHub"><rect x="1114" y="0" fill="#eaeaea" stroke="#666" width="150" height="65" name="GitHub" rx="6" ry="6" class="actor actor-top" data-look="neo" filter="url(#drop-shadow)"/><text x="1189" y="32.5" style="text-anchor: middle; font-size: 16px; font-weight: 400;" dominant-baseline="central" alignment-baseline="central" class="actor actor-box"><tspan x="1189" dy="0">GitHub</tspan></text></g></g><g><line id="actor2427" x1="879" y1="65" x2="879" y2="1715" class="actor-line 200" stroke-width="0.5px" stroke="#999" name="Bridge" data-et="life-line" data-id="Bridge"/><g id="root-2427" data-look="neo" data-et="participant" data-type="participant" data-id="Bridge"><rect x="804" y="0" fill="#eaeaea" stroke="#666" width="150" height="65" name="Bridge" rx="6" ry="6" class="actor actor-top" data-look="neo" filter="url(#drop-shadow)"/><text x="879" y="32.5" style="text-anchor: middle; font-size: 16px; font-weight: 400;" dominant-baseline="central" alignment-baseline="central" class="actor actor-box"><tspan x="879" dy="0">Bridge</tspan></text></g></g><g><line id="actor2426" x1="75" y1="80" x2="75" y2="1715" class="actor-line 200" stroke-width="0.5px" stroke="#999" name="User" data-et="life-line" data-id="User"/></g><style>#export-svg{font-family:arial,sans-serif;font-size:14px;fill:#000000;}@keyframes edge-animation-frame{from{stroke-dashoffset:0;}}@keyframes dash{to{stroke-dashoffset:0;}}#export-svg .edge-animation-slow{stroke-dasharray:9,5!important;stroke-dashoffset:900;animation:dash 50s linear infinite;stroke-linecap:round;}#export-svg .edge-animation-fast{stroke-dasharray:9,5!important;stroke-dashoffset:900;animation:dash 20s linear infinite;stroke-linecap:round;}#export-svg .error-icon{fill:#552222;}#export-svg .error-text{fill:#552222;stroke:#552222;}#export-svg .edge-thickness-normal{stroke-width:1px;}#export-svg .edge-thickness-thick{stroke-width:3.5px;}#export-svg .edge-pattern-solid{stroke-dasharray:0;}#export-svg .edge-thickness-invisible{stroke-width:0;fill:none;}#export-svg .edge-pattern-dashed{stroke-dasharray:3;}#export-svg .edge-pattern-dotted{stroke-dasharray:2;}#export-svg .marker{fill:#666;stroke:#666;}#export-svg .marker.cross{stroke:#666;}#export-svg svg{font-family:arial,sans-serif;font-size:14px;}#export-svg p{margin:0;}#export-svg .actor{stroke:hsl(0, 0%, 83%);fill:#eee;stroke-width:1;}#export-svg rect.actor.outer-path[data-look="neo"]{filter:drop-shadow( 1px 2px 2px rgba(185,185,185,1));}#export-svg rect.note[data-look="neo"]{stroke:#999;fill:#666;filter:drop-shadow( 1px 2px 2px rgba(185,185,185,1));stroke-width:1;}#export-svg text.actor&gt;tspan{fill:#333;stroke:none;}#export-svg .actor-line{stroke:hsl(0, 0%, 83%);}#export-svg .innerArc{stroke-width:1.5;stroke-dasharray:none;}#export-svg .messageLine0{stroke-width:1;stroke-dasharray:none;stroke:#333;}#export-svg .messageLine1{stroke-width:1;stroke-dasharray:2,2;stroke:#333;}#export-svg #arrowhead path{fill:#333;stroke:#333;}#export-svg .sequenceNumber{fill:white;}#export-svg #sequencenumber{fill:#333;}#export-svg #crosshead path{fill:#333;stroke:#333;}#export-svg .messageText{fill:#333;stroke:none;}#export-svg .labelBox{stroke:hsl(0, 0%, 83%);fill:#eee;filter:drop-shadow( 1px 2px 2px rgba(185,185,185,1));}#export-svg .labelText,#export-svg .labelText&gt;tspan{fill:#333;stroke:none;}#export-svg .loopText,#export-svg .loopText&gt;tspan{fill:#333;stroke:none;}#export-svg .loopLine{stroke-width:2px;stroke-dasharray:2,2;stroke:hsl(0, 0%, 83%);fill:hsl(0, 0%, 83%);}#export-svg .note{stroke:#999;fill:#666;}#export-svg .noteText,#export-svg .noteText&gt;tspan{fill:#fff;stroke:none;font-weight:normal;}#export-svg .activation0{fill:#f4f4f4;stroke:#666;}#export-svg .activation1{fill:#f4f4f4;stroke:#666;}#export-svg .activation2{fill:#f4f4f4;stroke:#666;}#export-svg .actorPopupMenu{position:absolute;}#export-svg .actorPopupMenuPanel{position:absolute;fill:#eee;box-shadow:0px 8px 16px 0px rgba(0,0,0,0.2);filter:drop-shadow(3px 5px 2px rgb(0 0 0 / 0.4));}#export-svg .actor-man circle,#export-svg line{fill:#eee;stroke-width:2px;}#export-svg g rect.rect{filter:drop-shadow( 1px 2px 2px rgba(185,185,185,1));stroke:#999;stroke-width:1;}#export-svg .node .neo-node{stroke:#999;}#export-svg [data-look="neo"].node rect,#export-svg [data-look="neo"].cluster rect,#export-svg [data-look="neo"].node polygon{stroke:url(#export-svg-gradient);filter:drop-shadow( 1px 2px 2px rgba(185,185,185,1));}#export-svg [data-look="neo"].node path{stroke:url(#export-svg-gradient);stroke-width:1;}#export-svg [data-look="neo"].node .outer-path{filter:drop-shadow( 1px 2px 2px rgba(185,185,185,1));}#export-svg [data-look="neo"].node .neo-line path{stroke:#999;filter:none;}#export-svg [data-look="neo"].node circle{stroke:url(#export-svg-gradient);filter:drop-shadow( 1px 2px 2px rgba(185,185,185,1));}#export-svg [data-look="neo"].node circle .state-start{fill:#000000;}#export-svg [data-look="neo"].statediagram-cluster rect{fill:#eee;stroke:url(#export-svg-gradient);stroke-width:1;}#export-svg [data-look="neo"].icon-shape .icon{fill:url(#export-svg-gradient);filter:drop-shadow( 1px 2px 2px rgba(185,185,185,1));}#export-svg [data-look="neo"].icon-shape .icon-neo path{stroke:url(#export-svg-gradient);filter:drop-shadow( 1px 2px 2px rgba(185,185,185,1));}#export-svg :root{--mermaid-font-family:"trebuchet ms",verdana,arial,sans-serif;}</style><g/><defs><symbol id="computer" width="24" height="24"><path transform="scale(.5)" d="M2 2v13h20v-13h-20zm18 11h-16v-9h16v9zm-10.228 6l.466-1h3.524l.467 1h-4.457zm14.228 3h-24l2-6h2.104l-1.33 4h18.45l-1.297-4h2.073l2 6zm-5-10h-14v-7h14v7z"/></symbol></defs><defs><symbol id="database" fill-rule="evenodd" clip-rule="evenodd"><path transform="scale(.5)" d="M12.258.001l.256.004.255.005.253.008.251.01.249.012.247.015.246.016.242.019.241.02.239.023.236.024.233.027.231.028.229.031.225.032.223.034.22.036.217.038.214.04.211.041.208.043.205.045.201.046.198.048.194.05.191.051.187.053.183.054.18.056.175.057.172.059.168.06.163.061.16.063.155.064.15.066.074.033.073.033.071.034.07.034.069.035.068.035.067.035.066.035.064.036.064.036.062.036.06.036.06.037.058.037.058.037.055.038.055.038.053.038.052.038.051.039.05.039.048.039.047.039.045.04.044.04.043.04.041.04.04.041.039.041.037.041.036.041.034.041.033.042.032.042.03.042.029.042.027.042.026.043.024.043.023.043.021.043.02.043.018.044.017.043.015.044.013.044.012.044.011.045.009.044.007.045.006.045.004.045.002.045.001.045v17l-.001.045-.002.045-.004.045-.006.045-.007.045-.009.044-.011.045-.012.044-.013.044-.015.044-.017.043-.018.044-.02.043-.021.043-.023.043-.024.043-.026.043-.027.042-.029.042-.03.042-.032.042-.033.042-.034.041-.036.041-.037.041-.039.041-.04.041-.041.04-.043.04-.044.04-.045.04-.047.039-.048.039-.05.039-.051.039-.052.038-.053.038-.055.038-.055.038-.058.037-.058.037-.06.037-.06.036-.062.036-.064.036-.064.036-.066.035-.067.035-.068.035-.069.035-.07.034-.071.034-.073.033-.074.033-.15.066-.155.064-.16.063-.163.061-.168.06-.172.059-.175.057-.18.056-.183.054-.187.053-.191.051-.194.05-.198.048-.201.046-.205.045-.208.043-.211.041-.214.04-.217.038-.22.036-.223.034-.225.032-.229.031-.231.028-.233.027-.236.024-.239.023-.241.02-.242.019-.246.016-.247.015-.249.012-.251.01-.253.008-.255.005-.256.004-.258.001-.258-.001-.256-.004-.255-.005-.253-.008-.251-.01-.249-.012-.247-.015-.245-.016-.243-.019-.241-.02-.238-.023-.236-.024-.234-.027-.231-.028-.228-.031-.226-.032-.223-.034-.22-.036-.217-.038-.214-.04-.211-.041-.208-.043-.204-.045-.201-.046-.198-.048-.195-.05-.19-.051-.187-.053-.184-.054-.179-.056-.176-.057-.172-.059-.167-.06-.164-.061-.159-.063-.155-.064-.151-.066-.074-.033-.072-.033-.072-.034-.07-.034-.069-.035-.068-.035-.067-.035-.066-.035-.064-.036-.063-.036-.062-.036-.061-.036-.06-.037-.058-.037-.057-.037-.056-.038-.055-.038-.053-.038-.052-.038-.051-.039-.049-.039-.049-.039-.046-.039-.046-.04-.044-.04-.043-.04-.041-.04-.04-.041-.039-.041-.037-.041-.036-.041-.034-.041-.033-.042-.032-.042-.03-.042-.029-.042-.027-.042-.026-.043-.024-.043-.023-.043-.021-.043-.02-.043-.018-.044-.017-.043-.015-.044-.013-.044-.012-.044-.011-.045-.009-.044-.007-.045-.006-.045-.004-.045-.002-.045-.001-.045v-17l.001-.045.002-.045.004-.045.006-.045.007-.045.009-.044.011-.045.012-.044.013-.044.015-.044.017-.043.018-.044.02-.043.021-.043.023-.043.024-.043.026-.043.027-.042.029-.042.03-.042.032-.042.033-.042.034-.041.036-.041.037-.041.039-.041.04-.041.041-.04.043-.04.044-.04.046-.04.046-.039.049-.039.049-.039.051-.039.052-.038.053-.038.055-.038.056-.038.057-.037.058-.037.06-.037.061-.036.062-.036.063-.036.064-.036.066-.035.067-.035.068-.035.069-.035.07-.034.072-.034.072-.033.074-.033.151-.066.155-.064.159-.063.164-.061.167-.06.172-.059.176-.057.179-.056.184-.054.187-.053.19-.051.195-.05.198-.048.201-.046.204-.045.208-.043.211-.041.214-.04.217-.038.22-.036.223-.034.226-.032.228-.031.231-.028.234-.027.236-.024.238-.023.241-.02.243-.019.245-.016.247-.015.249-.012.251-.01.253-.008.255-.005.256-.004.258-.001.258.001zm-9.258 20.499v.01l.001.021.003.021.004.022.005.021.006.022.007.022.009.023.01.022.011.023.012.023.013.023.015.023.016.024.017.023.018.024.019.024.021.024.022.025.023.024.024.025.052.049.056.05.061.051.066.051.07.051.075.051.079.052.084.052.088.052.092.052.097.052.102.051.105.052.11.052.114.051.119.051.123.051.127.05.131.05.135.05.139.048.144.049.147.047.152.047.155.047.16.045.163.045.167.043.171.043.176.041.178.041.183.039.187.039.19.037.194.035.197.035.202.033.204.031.209.03.212.029.216.027.219.025.222.024.226.021.23.02.233.018.236.016.24.015.243.012.246.01.249.008.253.005.256.004.259.001.26-.001.257-.004.254-.005.25-.008.247-.011.244-.012.241-.014.237-.016.233-.018.231-.021.226-.021.224-.024.22-.026.216-.027.212-.028.21-.031.205-.031.202-.034.198-.034.194-.036.191-.037.187-.039.183-.04.179-.04.175-.042.172-.043.168-.044.163-.045.16-.046.155-.046.152-.047.148-.048.143-.049.139-.049.136-.05.131-.05.126-.05.123-.051.118-.052.114-.051.11-.052.106-.052.101-.052.096-.052.092-.052.088-.053.083-.051.079-.052.074-.052.07-.051.065-.051.06-.051.056-.05.051-.05.023-.024.023-.025.021-.024.02-.024.019-.024.018-.024.017-.024.015-.023.014-.024.013-.023.012-.023.01-.023.01-.022.008-.022.006-.022.006-.022.004-.022.004-.021.001-.021.001-.021v-4.127l-.077.055-.08.053-.083.054-.085.053-.087.052-.09.052-.093.051-.095.05-.097.05-.1.049-.102.049-.105.048-.106.047-.109.047-.111.046-.114.045-.115.045-.118.044-.12.043-.122.042-.124.042-.126.041-.128.04-.13.04-.132.038-.134.038-.135.037-.138.037-.139.035-.142.035-.143.034-.144.033-.147.032-.148.031-.15.03-.151.03-.153.029-.154.027-.156.027-.158.026-.159.025-.161.024-.162.023-.163.022-.165.021-.166.02-.167.019-.169.018-.169.017-.171.016-.173.015-.173.014-.175.013-.175.012-.177.011-.178.01-.179.008-.179.008-.181.006-.182.005-.182.004-.184.003-.184.002h-.37l-.184-.002-.184-.003-.182-.004-.182-.005-.181-.006-.179-.008-.179-.008-.178-.01-.176-.011-.176-.012-.175-.013-.173-.014-.172-.015-.171-.016-.17-.017-.169-.018-.167-.019-.166-.02-.165-.021-.163-.022-.162-.023-.161-.024-.159-.025-.157-.026-.156-.027-.155-.027-.153-.029-.151-.03-.15-.03-.148-.031-.146-.032-.145-.033-.143-.034-.141-.035-.14-.035-.137-.037-.136-.037-.134-.038-.132-.038-.13-.04-.128-.04-.126-.041-.124-.042-.122-.042-.12-.044-.117-.043-.116-.045-.113-.045-.112-.046-.109-.047-.106-.047-.105-.048-.102-.049-.1-.049-.097-.05-.095-.05-.093-.052-.09-.051-.087-.052-.085-.053-.083-.054-.08-.054-.077-.054v4.127zm0-5.654v.011l.001.021.003.021.004.021.005.022.006.022.007.022.009.022.01.022.011.023.012.023.013.023.015.024.016.023.017.024.018.024.019.024.021.024.022.024.023.025.024.024.052.05.056.05.061.05.066.051.07.051.075.052.079.051.084.052.088.052.092.052.097.052.102.052.105.052.11.051.114.051.119.052.123.05.127.051.131.05.135.049.139.049.144.048.147.048.152.047.155.046.16.045.163.045.167.044.171.042.176.042.178.04.183.04.187.038.19.037.194.036.197.034.202.033.204.032.209.03.212.028.216.027.219.025.222.024.226.022.23.02.233.018.236.016.24.014.243.012.246.01.249.008.253.006.256.003.259.001.26-.001.257-.003.254-.006.25-.008.247-.01.244-.012.241-.015.237-.016.233-.018.231-.02.226-.022.224-.024.22-.025.216-.027.212-.029.21-.03.205-.032.202-.033.198-.035.194-.036.191-.037.187-.039.183-.039.179-.041.175-.042.172-.043.168-.044.163-.045.16-.045.155-.047.152-.047.148-.048.143-.048.139-.05.136-.049.131-.05.126-.051.123-.051.118-.051.114-.052.11-.052.106-.052.101-.052.096-.052.092-.052.088-.052.083-.052.079-.052.074-.051.07-.052.065-.051.06-.05.056-.051.051-.049.023-.025.023-.024.021-.025.02-.024.019-.024.018-.024.017-.024.015-.023.014-.023.013-.024.012-.022.01-.023.01-.023.008-.022.006-.022.006-.022.004-.021.004-.022.001-.021.001-.021v-4.139l-.077.054-.08.054-.083.054-.085.052-.087.053-.09.051-.093.051-.095.051-.097.05-.1.049-.102.049-.105.048-.106.047-.109.047-.111.046-.114.045-.115.044-.118.044-.12.044-.122.042-.124.042-.126.041-.128.04-.13.039-.132.039-.134.038-.135.037-.138.036-.139.036-.142.035-.143.033-.144.033-.147.033-.148.031-.15.03-.151.03-.153.028-.154.028-.156.027-.158.026-.159.025-.161.024-.162.023-.163.022-.165.021-.166.02-.167.019-.169.018-.169.017-.171.016-.173.015-.173.014-.175.013-.175.012-.177.011-.178.009-.179.009-.179.007-.181.007-.182.005-.182.004-.184.003-.184.002h-.37l-.184-.002-.184-.003-.182-.004-.182-.005-.181-.007-.179-.007-.179-.009-.178-.009-.176-.011-.176-.012-.175-.013-.173-.014-.172-.015-.171-.016-.17-.017-.169-.018-.167-.019-.166-.02-.165-.021-.163-.022-.162-.023-.161-.024-.159-.025-.157-.026-.156-.027-.155-.028-.153-.028-.151-.03-.15-.03-.148-.031-.146-.033-.145-.033-.143-.033-.141-.035-.14-.036-.137-.036-.136-.037-.134-.038-.132-.039-.13-.039-.128-.04-.126-.041-.124-.042-.122-.043-.12-.043-.117-.044-.116-.044-.113-.046-.112-.046-.109-.046-.106-.047-.105-.048-.102-.049-.1-.049-.097-.05-.095-.051-.093-.051-.09-.051-.087-.053-.085-.052-.083-.054-.08-.054-.077-.054v4.139zm0-5.666v.011l.001.02.003.022.004.021.005.022.006.021.007.022.009.023.01.022.011.023.012.023.013.023.015.023.016.024.017.024.018.023.019.024.021.025.022.024.023.024.024.025.052.05.056.05.061.05.066.051.07.051.075.052.079.051.084.052.088.052.092.052.097.052.102.052.105.051.11.052.114.051.119.051.123.051.127.05.131.05.135.05.139.049.144.048.147.048.152.047.155.046.16.045.163.045.167.043.171.043.176.042.178.04.183.04.187.038.19.037.194.036.197.034.202.033.204.032.209.03.212.028.216.027.219.025.222.024.226.021.23.02.233.018.236.017.24.014.243.012.246.01.249.008.253.006.256.003.259.001.26-.001.257-.003.254-.006.25-.008.247-.01.244-.013.241-.014.237-.016.233-.018.231-.02.226-.022.224-.024.22-.025.216-.027.212-.029.21-.03.205-.032.202-.033.198-.035.194-.036.191-.037.187-.039.183-.039.179-.041.175-.042.172-.043.168-.044.163-.045.16-.045.155-.047.152-.047.148-.048.143-.049.139-.049.136-.049.131-.051.126-.05.123-.051.118-.052.114-.051.11-.052.106-.052.101-.052.096-.052.092-.052.088-.052.083-.052.079-.052.074-.052.07-.051.065-.051.06-.051.056-.05.051-.049.023-.025.023-.025.021-.024.02-.024.019-.024.018-.024.017-.024.015-.023.014-.024.013-.023.012-.023.01-.022.01-.023.008-.022.006-.022.006-.022.004-.022.004-.021.001-.021.001-.021v-4.153l-.077.054-.08.054-.083.053-.085.053-.087.053-.09.051-.093.051-.095.051-.097.05-.1.049-.102.048-.105.048-.106.048-.109.046-.111.046-.114.046-.115.044-.118.044-.12.043-.122.043-.124.042-.126.041-.128.04-.13.039-.132.039-.134.038-.135.037-.138.036-.139.036-.142.034-.143.034-.144.033-.147.032-.148.032-.15.03-.151.03-.153.028-.154.028-.156.027-.158.026-.159.024-.161.024-.162.023-.163.023-.165.021-.166.02-.167.019-.169.018-.169.017-.171.016-.173.015-.173.014-.175.013-.175.012-.177.01-.178.01-.179.009-.179.007-.181.006-.182.006-.182.004-.184.003-.184.001-.185.001-.185-.001-.184-.001-.184-.003-.182-.004-.182-.006-.181-.006-.179-.007-.179-.009-.178-.01-.176-.01-.176-.012-.175-.013-.173-.014-.172-.015-.171-.016-.17-.017-.169-.018-.167-.019-.166-.02-.165-.021-.163-.023-.162-.023-.161-.024-.159-.024-.157-.026-.156-.027-.155-.028-.153-.028-.151-.03-.15-.03-.148-.032-.146-.032-.145-.033-.143-.034-.141-.034-.14-.036-.137-.036-.136-.037-.134-.038-.132-.039-.13-.039-.128-.041-.126-.041-.124-.041-.122-.043-.12-.043-.117-.044-.116-.044-.113-.046-.112-.046-.109-.046-.106-.048-.105-.048-.102-.048-.1-.05-.097-.049-.095-.051-.093-.051-.09-.052-.087-.052-.085-.053-.083-.053-.08-.054-.077-.054v4.153zm8.74-8.179l-.257.004-.254.005-.25.008-.247.011-.244.012-.241.014-.237.016-.233.018-.231.021-.226.022-.224.023-.22.026-.216.027-.212.028-.21.031-.205.032-.202.033-.198.034-.194.036-.191.038-.187.038-.183.04-.179.041-.175.042-.172.043-.168.043-.163.045-.16.046-.155.046-.152.048-.148.048-.143.048-.139.049-.136.05-.131.05-.126.051-.123.051-.118.051-.114.052-.11.052-.106.052-.101.052-.096.052-.092.052-.088.052-.083.052-.079.052-.074.051-.07.052-.065.051-.06.05-.056.05-.051.05-.023.025-.023.024-.021.024-.02.025-.019.024-.018.024-.017.023-.015.024-.014.023-.013.023-.012.023-.01.023-.01.022-.008.022-.006.023-.006.021-.004.022-.004.021-.001.021-.001.021.001.021.001.021.004.021.004.022.006.021.006.023.008.022.01.022.01.023.012.023.013.023.014.023.015.024.017.023.018.024.019.024.02.025.021.024.023.024.023.025.051.05.056.05.06.05.065.051.07.052.074.051.079.052.083.052.088.052.092.052.096.052.101.052.106.052.11.052.114.052.118.051.123.051.126.051.131.05.136.05.139.049.143.048.148.048.152.048.155.046.16.046.163.045.168.043.172.043.175.042.179.041.183.04.187.038.191.038.194.036.198.034.202.033.205.032.21.031.212.028.216.027.22.026.224.023.226.022.231.021.233.018.237.016.241.014.244.012.247.011.25.008.254.005.257.004.26.001.26-.001.257-.004.254-.005.25-.008.247-.011.244-.012.241-.014.237-.016.233-.018.231-.021.226-.022.224-.023.22-.026.216-.027.212-.028.21-.031.205-.032.202-.033.198-.034.194-.036.191-.038.187-.038.183-.04.179-.041.175-.042.172-.043.168-.043.163-.045.16-.046.155-.046.152-.048.148-.048.143-.048.139-.049.136-.05.131-.05.126-.051.123-.051.118-.051.114-.052.11-.052.106-.052.101-.052.096-.052.092-.052.088-.052.083-.052.079-.052.074-.051.07-.052.065-.051.06-.05.056-.05.051-.05.023-.025.023-.024.021-.024.02-.025.019-.024.018-.024.017-.023.015-.024.014-.023.013-.023.012-.023.01-.023.01-.022.008-.022.006-.023.006-.021.004-.022.004-.021.001-.021.001-.021-.001-.021-.001-.021-.004-.021-.004-.022-.006-.021-.006-.023-.008-.022-.01-.022-.01-.023-.012-.023-.013-.023-.014-.023-.015-.024-.017-.023-.018-.024-.019-.024-.02-.025-.021-.024-.023-.024-.023-.025-.051-.05-.056-.05-.06-.05-.065-.051-.07-.052-.074-.051-.079-.052-.083-.052-.088-.052-.092-.052-.096-.052-.101-.052-.106-.052-.11-.052-.114-.052-.118-.051-.123-.051-.126-.051-.131-.05-.136-.05-.139-.049-.143-.048-.148-.048-.152-.048-.155-.046-.16-.046-.163-.045-.168-.043-.172-.043-.175-.042-.179-.041-.183-.04-.187-.038-.191-.038-.194-.036-.198-.034-.202-.033-.205-.032-.21-.031-.212-.028-.216-.027-.22-.026-.224-.023-.226-.022-.231-.021-.233-.018-.237-.016-.241-.014-.244-.012-.247-.011-.25-.008-.254-.005-.257-.004-.26-.001-.26.001z"/></symbol></defs><defs><symbol id="clock" width="24" height="24"><path transform="scale(.5)" d="M12 2c5.514 0 10 4.486 10 10s-4.486 10-10 10-10-4.486-10-10 4.486-10 10-10zm0-2c-6.627 0-12 5.373-12 12s5.373 12 12 12 12-5.373 12-12-5.373-12-12-12zm5.848 12.459c.202.038.202.333.001.372-1.907.361-6.045 1.111-6.547 1.111-.719 0-1.301-.582-1.301-1.301 0-.512.77-5.447 1.125-7.445.034-.192.312-.181.343.014l.985 6.238 5.394 1.011z"/></symbol></defs><defs><marker id="arrowhead" refX="7.9" refY="5" markerUnits="userSpaceOnUse" markerWidth="12" markerHeight="12" orient="auto-start-reverse"><path d="M -1 0 L 10 5 L 0 10 z"/></marker></defs><defs><marker id="crosshead" markerWidth="15" markerHeight="8" orient="auto" refX="4" refY="4.5"><path fill="none" stroke="#000000" style="stroke-dasharray: 0, 0;" stroke-width="1pt" d="M 1,2 L 6,7 M 6,2 L 1,7"/></marker></defs><defs><marker id="filled-head" refX="15.5" refY="7" markerWidth="20" markerHeight="28" orient="auto"><path d="M 18,7 L9,13 L14,7 L9,1 Z"/></marker></defs><defs><marker id="sequencenumber" refX="15" refY="15" markerWidth="60" markerHeight="40" orient="auto" markerUnits="userSpaceOnUse"><circle cx="15" cy="15" r="10"/></marker></defs><defs><filter id="drop-shadow" height="130%" width="130%"><feDropShadow dx="4" dy="4" stdDeviation="0" flood-opacity="0.06" flood-color="#FFFFFF"/></filter></defs><defs><marker id="solidTopArrowHead" refX="7.9" refY="7.25" markerUnits="userSpaceOnUse" markerWidth="12" markerHeight="12" orient="auto-start-reverse"><path d="M 0 0 L 10 8 L 0 8 z"/></marker></defs><defs><marker id="solidBottomArrowHead" refX="7.9" refY="0.75" markerUnits="userSpaceOnUse" markerWidth="12" markerHeight="12" orient="auto-start-reverse"><path d="M 0 0 L 10 0 L 0 8 z"/></marker></defs><defs><marker id="stickTopArrowHead" refX="7.5" refY="7" markerUnits="userSpaceOnUse" markerWidth="12" markerHeight="12" orient="auto-start-reverse"><path d="M 0 0 L 7 7" stroke="black" stroke-width="1.5" fill="none"/></marker></defs><defs><marker id="stickBottomArrowHead" refX="7.5" refY="0" markerUnits="userSpaceOnUse" markerWidth="12" markerHeight="12" orient="auto-start-reverse"><path d="M 0 7 L 7 0" stroke="black" stroke-width="1.5" fill="none"/></marker></defs><g data-et="control-structure" data-id="i13"><line x1="64" y1="75" x2="890" y2="75" class="loopLine"/><line x1="890" y1="75" x2="890" y2="861" class="loopLine"/><line x1="64" y1="861" x2="890" y2="861" class="loopLine"/><line x1="64" y1="75" x2="64" y2="861" class="loopLine"/><line x1="64" y1="211" x2="890" y2="211" class="loopLine" style="stroke-dasharray: 3, 3;"/><line x1="64" y1="342" x2="890" y2="342" class="loopLine" style="stroke-dasharray: 3, 3;"/><line x1="64" y1="473" x2="890" y2="473" class="loopLine" style="stroke-dasharray: 3, 3;"/><line x1="64" y1="604" x2="890" y2="604" class="loopLine" style="stroke-dasharray: 3, 3;"/><line x1="64" y1="735" x2="890" y2="735" class="loopLine" style="stroke-dasharray: 3, 3;"/><polygon points="64,75 114,75 114,103 105.6,110 64,110" class="labelBox"/><text x="89" y="95" text-anchor="middle" dominant-baseline="middle" alignment-baseline="middle" style="font-size: 16px; font-weight: 400;" class="labelText">alt</text><text x="502" y="93" text-anchor="middle" style="font-size: 16px; font-weight: 400;" class="loopText"><tspan x="502">[GitHub → bio.tools (CLI)]</tspan></text><text x="477" y="229" text-anchor="middle" style="font-size: 16px; font-weight: 400;" class="loopText">[GitHub → bio.tools (API)]</text><text x="477" y="360" text-anchor="middle" style="font-size: 16px; font-weight: 400;" class="loopText">[GitHub → bio.tools (Python)]</text><text x="477" y="491" text-anchor="middle" style="font-size: 16px; font-weight: 400;" class="loopText">[bio.tools → GitHub (CLI)]</text><text x="477" y="622" text-anchor="middle" style="font-size: 16px; font-weight: 400;" class="loopText">[bio.tools → GitHub (API)]</text><text x="477" y="753" text-anchor="middle" style="font-size: 16px; font-weight: 400;" class="loopText">[bio.tools → GitHub (Python)]</text></g><g data-et="control-structure" data-id="i18"><line x1="868" y1="964" x2="1400" y2="964" class="loopLine"/><line x1="1400" y1="964" x2="1400" y2="1057" class="loopLine"/><line x1="868" y1="1057" x2="1400" y2="1057" class="loopLine"/><line x1="868" y1="964" x2="868" y2="1057" class="loopLine"/><polygon points="868,964 918,964 918,992 909.6,999 868,999" class="labelBox"/><text x="893" y="984" text-anchor="middle" dominant-baseline="middle" alignment-baseline="middle" style="font-size: 16px; font-weight: 400;" class="labelText">opt</text><text x="1159" y="982" text-anchor="middle" style="font-size: 16px; font-weight: 400;" class="loopText"><tspan x="1159">[If bio.tools ID provided]</tspan></text></g><g data-et="control-structure" data-id="i30"><line x1="868" y1="1496" x2="1200" y2="1496" class="loopLine"/><line x1="1200" y1="1496" x2="1200" y2="1589" class="loopLine"/><line x1="868" y1="1589" x2="1200" y2="1589" class="loopLine"/><line x1="868" y1="1496" x2="868" y2="1589" class="loopLine"/><polygon points="868,1496 918,1496 918,1524 909.6,1531 868,1531" class="labelBox"/><text x="893" y="1516" text-anchor="middle" dominant-baseline="middle" alignment-baseline="middle" style="font-size: 16px; font-weight: 400;" class="labelText">opt</text><text x="1059" y="1514" text-anchor="middle" style="font-size: 16px; font-weight: 400;" class="loopText"><tspan x="1059">[If issues enabled]</tspan></text></g><g data-et="control-structure" data-id="i33"><line x1="64" y1="871" x2="1600" y2="871" class="loopLine"/><line x1="1600" y1="871" x2="1600" y2="1695" class="loopLine"/><line x1="64" y1="1695" x2="1600" y2="1695" class="loopLine"/><line x1="64" y1="871" x2="64" y2="1695" class="loopLine"/><line x1="64" y1="1216" x2="1600" y2="1216" class="loopLine" style="stroke-dasharray: 3, 3;"/><polygon points="64,871 114,871 114,899 105.6,906 64,906" class="labelBox"/><text x="89" y="891" text-anchor="middle" dominant-baseline="middle" alignment-baseline="middle" style="font-size: 16px; font-weight: 400;" class="labelText">alt</text><text x="857" y="889" text-anchor="middle" style="font-size: 16px; font-weight: 400;" class="loopText"><tspan x="857">[GitHub → bio.tools]</tspan></text><text x="832" y="1234" text-anchor="middle" style="font-size: 16px; font-weight: 400;" class="loopText">[bio.tools → GitHub]</text></g><g class="actor-man actor-top" name="User" data-et="participant" data-type="actor" data-id="User" style="stroke: rgb(212, 212, 212);"><line id="actor-man-torso2426" x1="75" y1="27.5" x2="75" y2="37.5"/><line id="actor-man-arms2426" x1="66" y1="31.5" x2="84" y2="31.5"/><line x1="66" y1="45" x2="75" y2="37.5"/><line x1="75" y1="37.5" x2="83" y2="45"/><circle cx="75" cy="20" r="7.5" width="75" height="32.5"/><text x="75" y="55" style="text-anchor: middle; font-size: 16px; font-weight: 400;" dominant-baseline="central" alignment-baseline="central" class="actor actor-man"><tspan x="75" dy="0">User</tspan></text></g><text x="474" y="125" text-anchor="middle" dominant-baseline="middle" alignment-baseline="middle" style="font-size: 16px; font-weight: 400;" class="messageText" dy="1em">bridge cli</text><text x="474" y="143" text-anchor="middle" dominant-baseline="middle" alignment-baseline="middle" style="font-size: 16px; font-weight: 400;" class="messageText" dy="1em">github-to-biotools extract</text><text x="474" y="161" text-anchor="middle" dominant-baseline="middle" alignment-baseline="middle" style="font-size: 16px; font-weight: 400;" class="messageText" dy="1em">--owner O --repo R [--biotools-id ID]</text><line x1="76" y1="196" x2="872" y2="196" class="messageLine0" data-et="message" data-id="i2" data-from="User" data-to="Bridge" stroke-width="2" stroke="none" style="fill: none;" marker-end="url(#arrowhead)"/><line x1="76" y1="196" x2="76" y2="196" stroke-width="0" marker-start="url(#sequencenumber)"/><text x="76" y="200" font-family="sans-serif" font-size="12px" text-anchor="middle" class="sequenceNumber">1</text><text x="474" y="256" text-anchor="middle" dominant-baseline="middle" alignment-baseline="middle" style="font-size: 16px; font-weight: 400;" class="messageText" dy="1em">POST</text><text x="474" y="274" text-anchor="middle" dominant-baseline="middle" alignment-baseline="middle" style="font-size: 16px; font-weight: 400;" class="messageText" dy="1em">/github-to-biotools</text><text x="474" y="292" text-anchor="middle" dominant-baseline="middle" alignment-baseline="middle" style="font-size: 16px; font-weight: 400;" class="messageText" dy="1em">{owner, repo, biotools_id?}</text><line x1="76" y1="327" x2="872" y2="327" class="messageLine0" data-et="message" data-id="i4" data-from="User" data-to="Bridge" stroke-width="2" stroke="none" style="fill: none;" marker-end="url(#filled-head)"/><line x1="76" y1="327" x2="76" y2="327" stroke-width="0" marker-start="url(#sequencenumber)"/><text x="76" y="331" font-family="sans-serif" font-size="12px" text-anchor="middle" class="sequenceNumber">2</text><text x="474" y="387" text-anchor="middle" dominant-baseline="middle" alignment-baseline="middle" style="font-size: 16px; font-weight: 400;" class="messageText" dy="1em">import bridge</text><text x="474" y="405" text-anchor="middle" dominant-baseline="middle" alignment-baseline="middle" style="font-size: 16px; font-weight: 400;" class="messageText" dy="1em">await bridge.extract_meta_from_repo</text><text x="474" y="423" text-anchor="middle" dominant-baseline="middle" alignment-baseline="middle" style="font-size: 16px; font-weight: 400;" class="messageText" dy="1em">(schema="biotools", repo_type="github", owner=O, repo=R, identifier=ID?)</text><line x1="76" y1="458" x2="872" y2="458" class="messageLine0" data-et="message" data-id="i6" data-from="User" data-to="Bridge" stroke-width="2" stroke="none" style="fill: none;" marker-end="url(#filled-head)"/><line x1="76" y1="458" x2="76" y2="458" stroke-width="0" marker-start="url(#sequencenumber)"/><text x="76" y="462" font-family="sans-serif" font-size="12px" text-anchor="middle" class="sequenceNumber">3</text><text x="474" y="518" text-anchor="middle" dominant-baseline="middle" alignment-baseline="middle" style="font-size: 16px; font-weight: 400;" class="messageText" dy="1em">bridge cli</text><text x="474" y="536" text-anchor="middle" dominant-baseline="middle" alignment-baseline="middle" style="font-size: 16px; font-weight: 400;" class="messageText" dy="1em">biotools-to-github update</text><text x="474" y="554" text-anchor="middle" dominant-baseline="middle" alignment-baseline="middle" style="font-size: 16px; font-weight: 400;" class="messageText" dy="1em">--biotools-id ID --owner O --repo R [--allow-issues]</text><line x1="76" y1="589" x2="872" y2="589" class="messageLine0" data-et="message" data-id="i8" data-from="User" data-to="Bridge" stroke-width="2" stroke="none" style="fill: none;" marker-end="url(#arrowhead)"/><line x1="76" y1="589" x2="76" y2="589" stroke-width="0" marker-start="url(#sequencenumber)"/><text x="76" y="593" font-family="sans-serif" font-size="12px" text-anchor="middle" class="sequenceNumber">4</text><text x="474" y="649" text-anchor="middle" dominant-baseline="middle" alignment-baseline="middle" style="font-size: 16px; font-weight: 400;" class="messageText" dy="1em">POST</text><text x="474" y="667" text-anchor="middle" dominant-baseline="middle" alignment-baseline="middle" style="font-size: 16px; font-weight: 400;" class="messageText" dy="1em">/biotools-to-github</text><text x="474" y="685" text-anchor="middle" dominant-baseline="middle" alignment-baseline="middle" style="font-size: 16px; font-weight: 400;" class="messageText" dy="1em">{biotools_id, owner, repo, allow_issues?}</text><line x1="76" y1="720" x2="872" y2="720" class="messageLine0" data-et="message" data-id="i10" data-from="User" data-to="Bridge" stroke-width="2" stroke="none" style="fill: none;" marker-end="url(#filled-head)"/><line x1="76" y1="720" x2="76" y2="720" stroke-width="0" marker-start="url(#sequencenumber)"/><text x="76" y="724" font-family="sans-serif" font-size="12px" text-anchor="middle" class="sequenceNumber">5</text><text x="474" y="780" text-anchor="middle" dominant-baseline="middle" alignment-baseline="middle" style="font-size: 16px; font-weight: 400;" class="messageText" dy="1em">import bridge</text><text x="474" y="798" text-anchor="middle" dominant-baseline="middle" alignment-baseline="middle" style="font-size: 16px; font-weight: 400;" class="messageText" dy="1em">await bridge.create_pr_issues_from_meta</text><text x="474" y="816" text-anchor="middle" dominant-baseline="middle" alignment-baseline="middle" style="font-size: 16px; font-weight: 400;" class="messageText" dy="1em">(schema="biotools", repo_type="github", identifier=ID, owner=O, repo=R, allow_issues=?)</text><line x1="76" y1="851" x2="872" y2="851" class="messageLine0" data-et="message" data-id="i12" data-from="User" data-to="Bridge" stroke-width="2" stroke="none" style="fill: none;" marker-end="url(#filled-head)"/><line x1="76" y1="851" x2="76" y2="851" stroke-width="0" marker-start="url(#sequencenumber)"/><text x="76" y="855" font-family="sans-serif" font-size="12px" text-anchor="middle" class="sequenceNumber">6</text><text x="1031" y="921" text-anchor="middle" dominant-baseline="middle" alignment-baseline="middle" style="font-size: 16px; font-weight: 400;" class="messageText" dy="1em">Fetch repo metadata</text><line x1="880" y1="954" x2="1182" y2="954" class="messageLine0" data-et="message" data-id="i15" data-from="Bridge" data-to="GitHub" stroke-width="2" stroke="none" style="fill: none;" marker-end="url(#filled-head)"/><line x1="880" y1="954" x2="880" y2="954" stroke-width="0" marker-start="url(#sequencenumber)"/><text x="880" y="958" font-family="sans-serif" font-size="12px" text-anchor="middle" class="sequenceNumber">7</text><text x="1131" y="1014" text-anchor="middle" dominant-baseline="middle" alignment-baseline="middle" style="font-size: 16px; font-weight: 400;" class="messageText" dy="1em">Fetch existing tool metadata</text><line x1="880" y1="1047" x2="1382" y2="1047" class="messageLine0" data-et="message" data-id="i17" data-from="Bridge" data-to="BioTools" stroke-width="2" stroke="none" style="fill: none;" marker-end="url(#filled-head)"/><line x1="880" y1="1047" x2="880" y2="1047" stroke-width="0" marker-start="url(#sequencenumber)"/><text x="880" y="1051" font-family="sans-serif" font-size="12px" text-anchor="middle" class="sequenceNumber">8</text><text x="1231" y="1072" text-anchor="middle" dominant-baseline="middle" alignment-baseline="middle" style="font-size: 16px; font-weight: 400;" class="messageText" dy="1em">Create/update tool record fields</text><line x1="880" y1="1105" x2="1582" y2="1105" class="messageLine0" data-et="message" data-id="i19" data-from="Bridge" data-to="Pipeline" stroke-width="2" stroke="none" style="fill: none;" marker-end="url(#filled-head)"/><line x1="880" y1="1105" x2="880" y2="1105" stroke-width="0" marker-start="url(#sequencenumber)"/><text x="880" y="1109" font-family="sans-serif" font-size="12px" text-anchor="middle" class="sequenceNumber">9</text><text x="1237" y="1120" text-anchor="middle" dominant-baseline="middle" alignment-baseline="middle" style="font-size: 16px; font-weight: 400;" class="messageText" dy="1em">bio.tools tool metadata</text><line x1="1588" y1="1153" x2="886" y2="1153" style="stroke-dasharray: 3, 3; fill: none;" class="messageLine1" data-et="message" data-id="i20" data-from="Pipeline" data-to="Bridge" stroke-width="2" stroke="none" marker-end="url(#arrowhead)"/><line x1="1588" y1="1153" x2="1588" y2="1153" stroke-width="0" marker-start="url(#sequencenumber)"/><text x="1588" y="1157" font-family="sans-serif" font-size="12px" text-anchor="middle" class="sequenceNumber">10</text><text x="480" y="1168" text-anchor="middle" dominant-baseline="middle" alignment-baseline="middle" style="font-size: 16px; font-weight: 400;" class="messageText" dy="1em">bio.tools metadata JSON</text><line x1="878" y1="1201" x2="82" y2="1201" style="stroke-dasharray: 3, 3; fill: none;" class="messageLine1" data-et="message" data-id="i21" data-from="Bridge" data-to="User" stroke-width="2" stroke="none" marker-end="url(#arrowhead)"/><line x1="878" y1="1201" x2="878" y2="1201" stroke-width="0" marker-start="url(#sequencenumber)"/><text x="878" y="1205" font-family="sans-serif" font-size="12px" text-anchor="middle" class="sequenceNumber">11</text><text x="1031" y="1261" text-anchor="middle" dominant-baseline="middle" alignment-baseline="middle" style="font-size: 16px; font-weight: 400;" class="messageText" dy="1em">Fetch repo metadata</text><line x1="880" y1="1294" x2="1182" y2="1294" class="messageLine0" data-et="message" data-id="i23" data-from="Bridge" data-to="GitHub" stroke-width="2" stroke="none" style="fill: none;" marker-end="url(#filled-head)"/><line x1="880" y1="1294" x2="880" y2="1294" stroke-width="0" marker-start="url(#sequencenumber)"/><text x="880" y="1298" font-family="sans-serif" font-size="12px" text-anchor="middle" class="sequenceNumber">12</text><text x="1131" y="1309" text-anchor="middle" dominant-baseline="middle" alignment-baseline="middle" style="font-size: 16px; font-weight: 400;" class="messageText" dy="1em">Fetch tool metadata</text><line x1="880" y1="1342" x2="1382" y2="1342" class="messageLine0" data-et="message" data-id="i24" data-from="Bridge" data-to="BioTools" stroke-width="2" stroke="none" style="fill: none;" marker-end="url(#filled-head)"/><line x1="880" y1="1342" x2="880" y2="1342" stroke-width="0" marker-start="url(#sequencenumber)"/><text x="880" y="1346" font-family="sans-serif" font-size="12px" text-anchor="middle" class="sequenceNumber">13</text><text x="1231" y="1357" text-anchor="middle" dominant-baseline="middle" alignment-baseline="middle" style="font-size: 16px; font-weight: 400;" class="messageText" dy="1em">Determine PR + (optional) issues</text><line x1="880" y1="1390" x2="1582" y2="1390" class="messageLine0" data-et="message" data-id="i25" data-from="Bridge" data-to="Pipeline" stroke-width="2" stroke="none" style="fill: none;" marker-end="url(#filled-head)"/><line x1="880" y1="1390" x2="880" y2="1390" stroke-width="0" marker-start="url(#sequencenumber)"/><text x="880" y="1394" font-family="sans-serif" font-size="12px" text-anchor="middle" class="sequenceNumber">14</text><text x="1237" y="1405" text-anchor="middle" dominant-baseline="middle" alignment-baseline="middle" style="font-size: 16px; font-weight: 400;" class="messageText" dy="1em">File changes for PR + issues list</text><line x1="1588" y1="1438" x2="886" y2="1438" style="stroke-dasharray: 3, 3; fill: none;" class="messageLine1" data-et="message" data-id="i26" data-from="Pipeline" data-to="Bridge" stroke-width="2" stroke="none" marker-end="url(#arrowhead)"/><line x1="1588" y1="1438" x2="1588" y2="1438" stroke-width="0" marker-start="url(#sequencenumber)"/><text x="1588" y="1442" font-family="sans-serif" font-size="12px" text-anchor="middle" class="sequenceNumber">15</text><text x="1031" y="1453" text-anchor="middle" dominant-baseline="middle" alignment-baseline="middle" style="font-size: 16px; font-weight: 400;" class="messageText" dy="1em">Open PR with file changes</text><line x1="880" y1="1486" x2="1182" y2="1486" class="messageLine0" data-et="message" data-id="i27" data-from="Bridge" data-to="GitHub" stroke-width="2" stroke="none" style="fill: none;" marker-end="url(#filled-head)"/><line x1="880" y1="1486" x2="880" y2="1486" stroke-width="0" marker-start="url(#sequencenumber)"/><text x="880" y="1490" font-family="sans-serif" font-size="12px" text-anchor="middle" class="sequenceNumber">16</text><text x="1031" y="1546" text-anchor="middle" dominant-baseline="middle" alignment-baseline="middle" style="font-size: 16px; font-weight: 400;" class="messageText" dy="1em">Create issues for missing info</text><line x1="880" y1="1579" x2="1182" y2="1579" class="messageLine0" data-et="message" data-id="i29" data-from="Bridge" data-to="GitHub" stroke-width="2" stroke="none" style="fill: none;" marker-end="url(#filled-head)"/><line x1="880" y1="1579" x2="880" y2="1579" stroke-width="0" marker-start="url(#sequencenumber)"/><text x="880" y="1583" font-family="sans-serif" font-size="12px" text-anchor="middle" class="sequenceNumber">17</text><text x="1037" y="1604" text-anchor="middle" dominant-baseline="middle" alignment-baseline="middle" style="font-size: 16px; font-weight: 400;" class="messageText" dy="1em">PR (and issues) info</text><line x1="1188" y1="1637" x2="886" y2="1637" style="stroke-dasharray: 3, 3; fill: none;" class="messageLine1" data-et="message" data-id="i31" data-from="GitHub" data-to="Bridge" stroke-width="2" stroke="none" marker-end="url(#arrowhead)"/><line x1="1188" y1="1637" x2="1188" y2="1637" stroke-width="0" marker-start="url(#sequencenumber)"/><text x="1188" y="1641" font-family="sans-serif" font-size="12px" text-anchor="middle" class="sequenceNumber">18</text><text x="480" y="1652" text-anchor="middle" dominant-baseline="middle" alignment-baseline="middle" style="font-size: 16px; font-weight: 400;" class="messageText" dy="1em">PR (and issues) info</text><line x1="878" y1="1685" x2="82" y2="1685" style="stroke-dasharray: 3, 3; fill: none;" class="messageLine1" data-et="message" data-id="i32" data-from="Bridge" data-to="User" stroke-width="2" stroke="none" marker-end="url(#arrowhead)"/><line x1="878" y1="1685" x2="878" y2="1685" stroke-width="0" marker-start="url(#sequencenumber)"/><text x="878" y="1689" font-family="sans-serif" font-size="12px" text-anchor="middle" class="sequenceNumber">19</text><g class="actor-man actor-bottom" name="User" style="stroke: rgb(212, 212, 212);"><line id="actor-man-torso2430" x1="75" y1="1742.5" x2="75" y2="1752.5"/><line id="actor-man-arms2430" x1="66" y1="1746.5" x2="84" y2="1746.5"/><line x1="66" y1="1760" x2="75" y2="1752.5"/><line x1="75" y1="1752.5" x2="83" y2="1760"/><circle cx="75" cy="1735" r="7.5" width="75" height="16.25"/><text x="75" y="1770" style="text-anchor: middle; font-size: 16px; font-weight: 400;" dominant-baseline="central" alignment-baseline="central" class="actor actor-man"><tspan x="75" dy="0">User</tspan></text></g></svg>