<?xml version="1.0" encoding="UTF-8"?>
<svg id="Layer_1" xmlns="http://www.w3.org/2000/svg" version="1.1" xmlns:xlink="http://www.w3.org/1999/xlink" viewBox="0 0 457.92 457.92">
  <!-- Generator: Adobe Illustrator 29.4.0, SVG Export Plug-In . SVG Version: 2.1.0 Build 152)  -->
  <defs>
    <style>
      .st0 {
        fill: #fff;
      }

      .st1 {
        fill: none;
      }

      .st2 {
        fill: #181717;
        opacity: .5;
      }

      .st2, .st3 {
        isolation: isolate;
      }

      .st4 {
        clip-path: url(#clippath-1);
      }

      .st5 {
        font-family: DejaVuSans, 'DejaVu Sans';
        font-size: 12px;
      }

      .st3 {
        fill: #005472;
        opacity: .7;
      }

      .st6 {
        clip-path: url(#clippath);
      }
    </style>
    <clipPath id="clippath">
      <rect class="st1" x="7.2" y="7.2" width="443.52" height="443.52"/>
    </clipPath>
    <clipPath id="clippath-1">
      <rect class="st1" x="7.2" y="7.2" width="443.52" height="443.52"/>
    </clipPath>
  </defs>
  <g id="figure_1">
    <g id="patch_1">
      <path class="st0" d="M0,457.92h457.92V0H0v457.92Z"/>
    </g>
    <g id="axes_1">
      <g id="patch_2">
        <g class="st6">
          <path class="st2" d="M228.96,12719.5c1670.26,0,3272.33-663.6,4453.38-1844.65,1181.05-1181.05,1844.65-2783.12,1844.65-4453.38s-663.6-3272.33-1844.65-4453.38C3501.29,787.05,1899.22,123.45,228.96,123.45s-3272.33,663.6-4453.38,1844.65c-1181.05,1181.05-1844.65,2783.12-1844.65,4453.38s663.6,3272.33,1844.65,4453.38c1181.05,1181.05,2783.12,1844.65,4453.38,1844.65Z"/>
        </g>
      </g>
      <g id="patch_3">
        <g class="st4">
          <path class="st3" d="M228.96,173.52c14.7,0,28.81-5.84,39.2-16.24,10.4-10.4,16.24-24.5,16.24-39.2s-5.84-28.81-16.24-39.2c-10.4-10.4-24.5-16.24-39.2-16.24s-28.81,5.84-39.2,16.24c-10.4,10.4-16.24,24.5-16.24,39.2s5.84,28.81,16.24,39.2,24.5,16.24,39.2,16.24Z"/>
        </g>
      </g>
    </g>
  </g>
  <text class="st5" transform="translate(244.86 44.58)"><tspan x="0" y="0">bio.tools: 30,608 software tools</tspan></text>
  <text class="st5" transform="translate(85.15 264.35)"><tspan x="0" y="0">GitHub: ~395,000,000 open source repositories</tspan></text>
  <text class="st5" transform="translate(207.97 149.25)"><tspan x="0" y="0">13,391</tspan></text>
  <text class="st5" transform="translate(207.97 102.65)"><tspan x="0" y="0">17,217</tspan></text>
</svg>