<?xml version="1.0" encoding="utf-8" standalone="no"?>
<!DOCTYPE svg PUBLIC "-//W3C//DTD SVG 1.1//EN"
  "http://www.w3.org/Graphics/SVG/1.1/DTD/svg11.dtd">
<svg xmlns:xlink="http://www.w3.org/1999/xlink" width="457.92pt" height="457.92pt" viewBox="0 0 457.92 457.92" xmlns="http://www.w3.org/2000/svg" version="1.1">
 <metadata>
  <rdf:RDF xmlns:dc="http://purl.org/dc/elements/1.1/" xmlns:cc="http://creativecommons.org/ns#" xmlns:rdf="http://www.w3.org/1999/02/22-rdf-syntax-ns#">
   <cc:Work>
    <dc:type rdf:resource="http://purl.org/dc/dcmitype/StillImage"/>
    <dc:date>2025-11-15T17:15:46.735191</dc:date>
    <dc:format>image/svg+xml</dc:format>
    <dc:creator>
     <cc:Agent>
      <dc:title>Matplotlib v3.10.7, https://matplotlib.org/</dc:title>
     </cc:Agent>
    </dc:creator>
   </cc:Work>
  </rdf:RDF>
 </metadata>
 <defs>
  <style type="text/css">*{stroke-linejoin: round; stroke-linecap: butt}</style>
 </defs>
 <g id="figure_1">
  <g id="patch_1">
   <path d="M 0 457.92 
L 457.92 457.92 
L 457.92 0 
L 0 0 
z
" style="fill: #ffffff"/>
  </g>
  <g id="axes_1">
   <g id="patch_2">
    <path d="M 228.96 12719.498551 
C 1899.215419 12719.498551 3501.286359 12055.89904 4682.335292 10874.850107 
C 5863.384225 9693.801174 6526.983736 8091.730234 6526.983736 6421.474815 
C 6526.983736 4751.219397 5863.384225 3149.148456 4682.335292 1968.099523 
C 3501.286359 787.050591 1899.215419 123.451079 228.96 123.451079 
C -1441.295419 123.451079 -3043.366359 787.050591 -4224.415292 1968.099523 
C -5405.464225 3149.148456 -6069.063736 4751.219397 -6069.063736 6421.474815 
C -6069.063736 8091.730234 -5405.464225 9693.801174 -4224.415292 10874.850107 
C -3043.366359 12055.89904 -1441.295419 12719.498551 228.96 12719.498551 
z
" clip-path="url(#p4245a58837)" style="fill: #181717; opacity: 0.5"/>
   </g>
   <g id="patch_3">
    <path d="M 228.96 173.52 
C 243.66286 173.52 257.765508 167.678492 268.162 157.282 
C 278.558492 146.885508 284.4 132.78286 284.4 118.08 
C 284.4 103.37714 278.558492 89.274492 268.162 78.878 
C 257.765508 68.481508 243.66286 62.64 228.96 62.64 
C 214.25714 62.64 200.154492 68.481508 189.758 78.878 
C 179.361508 89.274492 173.52 103.37714 173.52 118.08 
C 173.52 132.78286 179.361508 146.885508 189.758 157.282 
C 200.154492 167.678492 214.25714 173.52 228.96 173.52 
z
" clip-path="url(#p4245a58837)" style="fill: #005472; opacity: 0.7"/>
   </g>
  </g>
 </g>
 <defs>
  <clipPath id="p4245a58837">
   <rect x="7.2" y="7.2" width="443.52" height="443.52"/>
  </clipPath>
 </defs>
</svg>
